<svg height="471pt" viewBox="0 -12 471.80777 471" width="471pt" xmlns="http://www.w3.org/2000/svg"><path d="m111.808594 224.210938c-48.449219-.039063-91.371094-31.257813-106.335938-77.339844-14.964844-46.078125 1.421875-96.558594 40.605469-125.058594 39.179687-28.5 92.25-28.550781 131.484375-.121094 39.234375 28.429688 55.71875 78.875 40.835938 124.984375-.765626 2.855469-3.042969 5.054688-5.921876 5.722657-2.882812.664062-5.894531-.3125-7.835937-2.542969-1.941406-2.226563-2.496094-5.347657-1.441406-8.109375 12.792969-39.554688-1.332031-82.847656-34.988281-107.253906-33.65625-24.402344-79.195313-24.371094-112.816407.078124-33.621093 24.453126-47.6875 67.765626-34.839843 107.304688 12.84375 39.539062 49.679687 66.316406 91.253906 66.335938 4.949218.003906 9.890625-.375 14.78125-1.128907 2.878906-.542969 5.824218.527344 7.679687 2.789063 1.855469 2.265625 2.328125 5.363281 1.226563 8.078125-1.101563 2.714843-3.59375 4.609375-6.503906 4.941406-5.6875.878906-11.429688 1.320313-17.183594 1.320313zm0 0" fill="#ee6d20"/><path d="m103.808594 191.773438c-.292969 0-.589844-.019532-.878906-.050782-34.816407-3.898437-63.042969-29.992187-69.660157-64.394531-6.613281-34.402344 9.921875-69.105469 40.808594-85.636719 30.882813-16.535156 68.933594-11.050781 93.890625 13.53125 24.957031 24.582032 31.019531 62.542969 14.960938 93.675782-1.285157 2.59375-3.867188 4.289062-6.753907 4.441406-2.890625.148437-5.632812-1.269532-7.179687-3.714844s-1.652344-5.53125-.277344-8.078125c4.695312-9.0625 7.128906-19.128906 7.089844-29.335937-.003906-34.417969-27.230469-62.671876-61.625-63.949219-34.394532-1.277344-63.640625 24.875-66.199219 59.199219-2.558594 34.324218 22.492187 64.527343 56.695313 68.359374 4.222656.464844 7.34375 4.148438 7.113281 8.386719-.230469 4.242188-3.738281 7.5625-7.984375 7.566407zm0 0" fill="#ee6d20"/><path d="m279.808594 176.210938v96h53.472656c23.484375 0 42.527344 19.042968 42.527344 42.527343-.003906 17.726563-10.996094 33.59375-27.59375 39.824219l-36.40625 13.648438v40h44c64.0625 0 116-51.933594 116-116 0-64.0625-51.9375-116-116-116zm0 0" fill="#fd9226"/><path d="m279.808594 272.210938h-64.722656c-20.109376 0-39.484376-7.574219-54.261719-21.214844l-65.984375-60.902344c-2.421875-2.238281-3.226563-5.726562-2.023438-8.796875 1.199219-3.070313 4.160156-5.089844 7.457032-5.085937h179.535156zm0 0" fill="#fd9226"/><g fill="#fd7422"><path d="m311.808594 384.210938c-20.8125 0-41.105469-6.503907-58.039063-18.597657l-29.960937-21.402343h64c13.253906 0 24 10.746093 24 24zm0 0"/><path d="m311.808594 384.210938c-20.8125 0-41.105469 6.503906-58.039063 18.601562l-29.960937 21.398438h64c13.253906 0 24-10.746094 24-24zm0 0"/><path d="m355.808594 176.210938h-76v96h53.472656c5.957031.015624 11.847656 1.285156 17.277344 3.738281l32.160156-96.472657c-8.8125-2.136718-17.84375-3.230468-26.910156-3.265624zm0 0"/><path d="m375.808594 314.738281c-.019532 1.832031-.164063 3.660157-.425782 5.472657h92.882813c7.714844-30.292969 2.699219-62.425782-13.882813-88.925782l-84 63.015625c3.515626 6.242188 5.382813 13.277344 5.425782 20.4375zm0 0"/><path d="m348.214844 354.5625-.855469.3125 17.601563 52.871094c21.191406-1.644532 41.511718-9.117188 58.71875-21.597656l-58.273438-43.71875c-4.617188 5.425781-10.53125 9.597656-17.191406 12.132812zm0 0"/></g><path d="m215.808594 212.210938c0 6.628906-5.375 12-12 12-6.628906 0-12-5.371094-12-12 0-6.625 5.371094-12 12-12 6.625 0 12 5.375 12 12zm0 0" fill="#ee6d20"/><path d="m335.808594 432.210938h16v16h-16zm0 0" fill="#fd9226"/><path d="m367.808594 432.210938h32v16h-32zm0 0" fill="#fd9226"/><path d="m255.808594 136.210938h16v16h-16zm0 0" fill="#fd7422"/><path d="m287.808594 136.210938h32v16h-32zm0 0" fill="#fd7422"/></svg>